<?xml version="1.0" standalone="no"?>
<svg xmlns="http://www.w3.org/2000/svg" viewBox="-100 -100 200 200" style="stroke: black; stroke-width: 10px; fill: none; stroke-linecap: round;"><path d="M0 35 L50 35 A5 5 0 0 0 55 30 A15 20 0 0 0 40 10 A5 5 0 0 1 35 5 L25 -65 A5 5 0 0 1 30 -70 A15 15 0 0 0 40 -85 A5 5 0 0 0 35 -90 L0 -90"/><path d="M0 35 L50 35 A5 5 0 0 0 55 30 A15 20 0 0 0 40 10 A5 5 0 0 1 35 5 L25 -65 A5 5 0 0 1 30 -70 A15 15 0 0 0 40 -85 A5 5 0 0 0 35 -90 L0 -90" transform="scale(-1, 1)"/><path d="M0 35 L0 90"/></svg>